<svg xmlns="http://www.w3.org/2000/svg" width="70.86" height="87.397" viewBox="0 0 70.86 87.397">
  <g id="agriculture" transform="translate(-14.537 -6.303)">
    <path id="Path_4" data-name="Path 4" d="M23.1,93.7a1.763,1.763,0,0,1-1.5-.8,18.016,18.016,0,0,1-.1-17.3,1.645,1.645,0,0,1,3.1,1.1c-.1.2-.1.3-.2.4a14.636,14.636,0,0,0,.2,14.2,1.609,1.609,0,0,1-.6,2.2,5.073,5.073,0,0,1-.9.2ZM82.2,9.5a1.249,1.249,0,0,1,.4,1.3c-5.8,28.9-13,47.7-21.1,55.9A25.812,25.812,0,0,1,25,30.2c11.4-11.4,45.6-19,55.9-21.1a1.678,1.678,0,0,1,1.3.4m2-2a4.28,4.28,0,0,0-3.9-1.1C66.7,9.2,34.5,16.8,22.9,28.3A28.567,28.567,0,0,0,63.3,68.7C75.8,56.3,82.6,25,85.3,11.4a4.28,4.28,0,0,0-1.1-3.9Z" fill="#1268b3"/>
    <path id="Path_5" data-name="Path 5" d="M82.2,9.5a1.249,1.249,0,0,1,.4,1.3c-5.8,28.9-13,47.7-21.1,55.9A25.812,25.812,0,0,1,25,30.2c11.4-11.4,45.6-19,55.9-21.1a1.678,1.678,0,0,1,1.3.4m2-2a4.28,4.28,0,0,0-3.9-1.1C66.7,9.2,34.5,16.8,22.9,28.3A28.567,28.567,0,0,0,63.3,68.7C75.8,56.3,82.6,25,85.3,11.4a4.28,4.28,0,0,0-1.1-3.9Z" fill="#1268b3"/>
    <path id="Path_6" data-name="Path 6" d="M30.3,64.4a2.92,2.92,0,0,1-.9-.2,1.755,1.755,0,0,1-.6-2.3c6.8-11.4,24.5-33.2,45.4-46.5a1.651,1.651,0,1,1,1.9,2.7c-.1,0-.1.1-.2.1-20.2,13-37.5,34.3-44.1,45.4a1.763,1.763,0,0,1-1.5.8Z" fill="#1268b3"/>
  </g>
</svg>
