<svg xmlns="http://www.w3.org/2000/svg" width="30" height="30" viewBox="0 0 91.667 55.807">
  <g id="AQS" transform="translate(-5.333 -8.093)">
    <g id="Capa_1_1_">
      <g id="Group_41" data-name="Group 41">
        <g id="Group_34" data-name="Group 34">
          <path id="Path_29" data-name="Path 29" d="M42,44.1a2.94,2.94,0,0,1-2.2-.9,3.034,3.034,0,0,1-.7-2.3,3.476,3.476,0,0,1,1.2-2.2,3.523,3.523,0,0,1,2.3-.9h0a2.94,2.94,0,0,1,2.2.9,3.034,3.034,0,0,1,.7,2.3,3.476,3.476,0,0,1-1.2,2.2,3.523,3.523,0,0,1-2.3.9Zm.7-5h0a1.974,1.974,0,0,0-1.4.6,1.889,1.889,0,0,0-.7,1.3,1.558,1.558,0,0,0,.3,1.2,1.656,1.656,0,0,0,1.2.5,1.974,1.974,0,0,0,1.4-.6,1.889,1.889,0,0,0,.7-1.3,1.558,1.558,0,0,0-.3-1.2A2.078,2.078,0,0,0,42.7,39.1Z" fill="#1268b3"/>
        </g>
        <g id="Group_35" data-name="Group 35">
          <path id="Path_30" data-name="Path 30" d="M65.6,39.4a2.94,2.94,0,0,1-2.2-.9,3.219,3.219,0,0,1,.5-4.5h0a3.257,3.257,0,0,1,4.5,0,3.219,3.219,0,0,1-.5,4.5,3.168,3.168,0,0,1-2.3.9ZM64.9,35a1.922,1.922,0,0,0-.4,2.6,1.656,1.656,0,0,0,1.2.5,1.974,1.974,0,0,0,1.4-.6,1.922,1.922,0,0,0,.4-2.6,1.983,1.983,0,0,0-2.6.1Z" fill="#1268b3"/>
        </g>
        <g id="Group_36" data-name="Group 36">
          <path id="Path_31" data-name="Path 31" d="M64.7,49.4a2.94,2.94,0,0,1-2.2-.9A3.219,3.219,0,0,1,63,44h0a3.257,3.257,0,0,1,4.5,0,3.219,3.219,0,0,1-.5,4.5,4.3,4.3,0,0,1-2.3.9ZM63.9,45a1.922,1.922,0,0,0-.4,2.6,1.606,1.606,0,0,0,1.1.5h0a1.974,1.974,0,0,0,1.4-.6,1.922,1.922,0,0,0,.4-2.6c-.5-.7-1.6-.7-2.5.1Z" fill="#1268b3"/>
        </g>
        <g id="Group_37" data-name="Group 37">
          <path id="Path_32" data-name="Path 32" d="M52.6,51.7a3.1,3.1,0,0,1-2.2-.9,3.219,3.219,0,0,1,.5-4.5h0a3.257,3.257,0,0,1,4.5,0,3.219,3.219,0,0,1-.5,4.5A3.337,3.337,0,0,1,52.6,51.7Zm-.7-4.4a1.922,1.922,0,0,0-.4,2.6,1.877,1.877,0,0,0,2.6-.1,1.922,1.922,0,0,0,.4-2.6,1.877,1.877,0,0,0-2.6.1Z" fill="#1268b3"/>
        </g>
        <g id="Group_38" data-name="Group 38">
          <path id="Path_33" data-name="Path 33" d="M41,54a2.94,2.94,0,0,1-2.2-.9,3.034,3.034,0,0,1-.7-2.3,3.476,3.476,0,0,1,1.2-2.2h0a3.523,3.523,0,0,1,2.3-.9,2.94,2.94,0,0,1,2.2.9,3.034,3.034,0,0,1,.7,2.3,3.476,3.476,0,0,1-1.2,2.2A3.168,3.168,0,0,1,41,54Zm-.7-4.4a1.889,1.889,0,0,0-.7,1.3,1.558,1.558,0,0,0,.3,1.2,1.606,1.606,0,0,0,1.1.5h0a1.974,1.974,0,0,0,1.4-.6,1.889,1.889,0,0,0,.7-1.3,1.558,1.558,0,0,0-.3-1.2,1.606,1.606,0,0,0-1.1-.5h0a3.506,3.506,0,0,0-1.4.6Z" fill="#1268b3"/>
        </g>
        <g id="Group_39" data-name="Group 39">
          <path id="Path_34" data-name="Path 34" d="M53.7,42.2a3.255,3.255,0,0,1-2.3-1,3,3,0,0,1-.7-2.4A3.6,3.6,0,0,1,52,36.5h0a3.946,3.946,0,0,1,2.5-1,2.765,2.765,0,0,1,2.3,1,3.408,3.408,0,0,1-.6,4.8,3.985,3.985,0,0,1-2.5.9Zm.8-5.4h0a2.271,2.271,0,0,0-1.6.6h0a1.9,1.9,0,0,0-.8,1.5,1.792,1.792,0,0,0,.4,1.4,1.536,1.536,0,0,0,1.3.5h0a2.452,2.452,0,0,0,1.6-.6,2.1,2.1,0,0,0,.4-2.9A1.9,1.9,0,0,0,54.5,36.8Z" fill="#1268b3"/>
        </g>
        <g id="Group_40" data-name="Group 40">
          <path id="Path_35" data-name="Path 35" d="M38.9,56.5a2.389,2.389,0,0,1-1.4-.5,2.986,2.986,0,0,1-.9-2.5l.5-15.3c.1-1.8,1.2-3.3,2.6-3.5l28.5-4.4a2.155,2.155,0,0,1,1.7.5,2.986,2.986,0,0,1,.9,2.5l-.5,15.3c-.1,1.8-1.2,3.3-2.6,3.5L39.2,56.5C39.1,56.4,39,56.5,38.9,56.5ZM68.5,31.6h-.1L39.9,36c-.7.1-1.4,1.2-1.5,2.2l-.5,15.3a1.978,1.978,0,0,0,.5,1.4.735.735,0,0,0,.6.2l28.5-4.4a2.192,2.192,0,0,0,1.4-2.2l.5-15.3a1.978,1.978,0,0,0-.5-1.4C68.8,31.6,68.7,31.6,68.5,31.6Z" fill="#1268b3"/>
        </g>
      </g>
      <g id="Group_42" data-name="Group 42">
        <path id="Path_36" data-name="Path 36" d="M28,63.9,7.3,52.6a1.08,1.08,0,0,1-.7-.3q-1.2-.9-1.2-4.5V21.6A3.086,3.086,0,0,1,6,19.1c1-1.4,3-2.4,5.9-2.8,6.6-.9,54.5-7.5,56.2-7.7.6-.1,5.5-1.4,7.8.6l-.9,1c-1.6-1.2-5.3-.6-6.6-.2h-.1c-.5.1-49.5,6.8-56.2,7.7-3.1.4-4.4,1.4-4.9,2.2a1.991,1.991,0,0,0-.4,1.6V48c0,2.6.5,3.3.6,3.4h.1l.3.1L28.7,62.8Z" fill="#1268b3"/>
      </g>
      <g id="Group_43" data-name="Group 43">
        <rect id="Rectangle_1" data-name="Rectangle 1" width="1.4" height="22.7" transform="translate(75.14 10.427) rotate(-61.387)" fill="#1268b3"/>
      </g>
      <g id="Group_44" data-name="Group 44">
        <path id="Path_37" data-name="Path 37" d="M29.3,63.9a3.221,3.221,0,0,1-2-.7,2.9,2.9,0,0,1-1-2.3V32.4a3.958,3.958,0,0,1,3.3-3.8l63.9-9a3.223,3.223,0,0,1,2.5.7,2.9,2.9,0,0,1,1,2.3V51.1a3.958,3.958,0,0,1-3.3,3.8l-63.9,9Zm64.6-43h-.3l-63.9,9a2.66,2.66,0,0,0-2.2,2.5V60.9a1.612,1.612,0,0,0,.6,1.3,1.792,1.792,0,0,0,1.4.4l63.9-9a2.66,2.66,0,0,0,2.2-2.5V22.6a1.612,1.612,0,0,0-.6-1.3A1.246,1.246,0,0,0,93.9,20.9Z" fill="#1268b3"/>
      </g>
    </g>
  </g>
</svg>
