<svg xmlns="http://www.w3.org/2000/svg" width="30" height="30" viewBox="0 0 82.341 87">
  <g id="cities" transform="translate(-8.811 -6.5)">
    <path id="Path_7" data-name="Path 7" d="M52.7,93.5H15.9a5.127,5.127,0,0,1-5-4.1C8.7,78,7.1,15.4,12.2,10.3,15.7,6.8,29.6,6.5,34,6.5h.1c4.2,0,18.3.3,21.8,3.8,5,5,3.6,69,1.3,79.6a4.689,4.689,0,0,1-4.5,3.6ZM34,9.7c-10.8,0-18,1.5-19.4,2.8-3,3.8-3.4,60.9-.5,76.2a1.819,1.819,0,0,0,1.8,1.5H52.7a1.3,1.3,0,0,0,1.3-1c3.1-13.8,2.7-72.6-.5-76.7-1.3-1.3-8.6-2.8-19.4-2.8Z" fill="#1268b3"/>
    <path id="Path_8" data-name="Path 8" d="M85.2,93.5H49.7V90.3H85.1c.3,0,.4-.3.5-.5,3.4-11.5,2.7-42.9-.2-45.7-.7-.7-5.5-1.8-13.3-1.8H72c-7.9,0-12.5,1.1-13.2,1.8l-2.3-2.3C59,39.3,68.1,39,72.1,39h.1c3,0,13,.2,15.6,2.8,4.6,4.6,4,38.5,1,49A3.779,3.779,0,0,1,85.2,93.5ZM31.6,26.7H35A1.685,1.685,0,0,0,36.7,25V21.6A1.752,1.752,0,0,0,35,19.9H31.6a1.752,1.752,0,0,0-1.7,1.7V25A1.685,1.685,0,0,0,31.6,26.7Zm-11.8,0h3.4A1.685,1.685,0,0,0,24.9,25V21.6a1.752,1.752,0,0,0-1.7-1.7H19.8a1.752,1.752,0,0,0-1.7,1.7V25A1.685,1.685,0,0,0,19.8,26.7Zm27-6.7H43.4a1.752,1.752,0,0,0-1.7,1.7V25a1.752,1.752,0,0,0,1.7,1.7h3.4A1.752,1.752,0,0,0,48.5,25V21.6A1.735,1.735,0,0,0,46.8,20ZM31.6,41.7H35A1.685,1.685,0,0,0,36.7,40V36.6A1.752,1.752,0,0,0,35,34.9H31.6a1.752,1.752,0,0,0-1.7,1.7V40A1.685,1.685,0,0,0,31.6,41.7Zm-11.8,0h3.4A1.685,1.685,0,0,0,24.9,40V36.6a1.752,1.752,0,0,0-1.7-1.7H19.8a1.752,1.752,0,0,0-1.7,1.7V40A1.685,1.685,0,0,0,19.8,41.7Zm27-6.7H43.4a1.752,1.752,0,0,0-1.7,1.7V40a1.752,1.752,0,0,0,1.7,1.7h3.4A1.752,1.752,0,0,0,48.5,40V36.6A1.818,1.818,0,0,0,46.8,35ZM31.6,56.2H35a1.685,1.685,0,0,0,1.7-1.7V51.1A1.685,1.685,0,0,0,35,49.4H31.6a1.752,1.752,0,0,0-1.7,1.7v3.4A1.685,1.685,0,0,0,31.6,56.2Zm-11.8,0h3.4a1.685,1.685,0,0,0,1.7-1.7V51.1a1.685,1.685,0,0,0-1.7-1.7H19.8a1.752,1.752,0,0,0-1.7,1.7v3.4A1.685,1.685,0,0,0,19.8,56.2Zm27-6.7H43.4a1.752,1.752,0,0,0-1.7,1.7v3.4a1.752,1.752,0,0,0,1.7,1.7h3.4a1.752,1.752,0,0,0,1.7-1.7V51.2A1.828,1.828,0,0,0,46.8,49.5Z" fill="#1268b3"/>
    <path id="Path_9" data-name="Path 9" d="M65.1,56.7h3.4A1.752,1.752,0,0,0,70.2,55V51.7A1.685,1.685,0,0,0,68.5,50H65.1a1.752,1.752,0,0,0-1.7,1.7v3.4A1.735,1.735,0,0,0,65.1,56.7ZM80.3,50H76.9a1.752,1.752,0,0,0-1.7,1.7v3.4a1.752,1.752,0,0,0,1.7,1.7h3.4A1.752,1.752,0,0,0,82,55.1V51.8A1.774,1.774,0,0,0,80.3,50ZM65.1,71.3h3.4a1.752,1.752,0,0,0,1.7-1.7V66.2a1.752,1.752,0,0,0-1.7-1.7H65.1a1.752,1.752,0,0,0-1.7,1.7v3.4A1.828,1.828,0,0,0,65.1,71.3Zm15.2-6.8H76.9a1.752,1.752,0,0,0-1.7,1.7v3.4a1.752,1.752,0,0,0,1.7,1.7h3.4A1.752,1.752,0,0,0,82,69.6V66.2A1.752,1.752,0,0,0,80.3,64.5ZM31.6,70.8H35a1.685,1.685,0,0,0,1.7-1.7V65.7A1.752,1.752,0,0,0,35,64H31.6a1.752,1.752,0,0,0-1.7,1.7v3.4a1.828,1.828,0,0,0,1.7,1.7ZM30.3,91.9h5.9a1.752,1.752,0,0,0,1.7-1.7V80.4a1.752,1.752,0,0,0-1.7-1.7H30.3a1.666,1.666,0,0,0-1.6,1.7v9.8a1.666,1.666,0,0,0,1.6,1.7Zm39.7,0h5.9a1.752,1.752,0,0,0,1.7-1.7V80.4a1.752,1.752,0,0,0-1.7-1.7H70a1.752,1.752,0,0,0-1.7,1.7v9.8A1.685,1.685,0,0,0,70,91.9ZM19.8,70.8h3.4a1.685,1.685,0,0,0,1.7-1.7V65.7A1.752,1.752,0,0,0,23.2,64H19.8a1.752,1.752,0,0,0-1.7,1.7v3.4A1.828,1.828,0,0,0,19.8,70.8Zm27-6.8H43.4a1.752,1.752,0,0,0-1.7,1.7v3.4a1.685,1.685,0,0,0,1.7,1.7h3.4a1.752,1.752,0,0,0,1.7-1.7V65.7A1.828,1.828,0,0,0,46.8,64Z" fill="#1268b3"/>
  </g>
</svg>
