<svg xmlns="http://www.w3.org/2000/svg" width="30" height="30" viewBox="0 0 87.906 81.1">
  <g id="e-health" transform="translate(-5.997 -10.5)">
    <path id="Path_1" data-name="Path 1" d="M54.3,66.8H54a2.978,2.978,0,0,1-2.7-2.3c-.2-.9-4.8-21.6-6-27.2-1.2,3.5-3.8,11.5-4.2,12.4A3.7,3.7,0,0,1,37.3,52H10.9a1.805,1.805,0,0,1-1.6-2,1.718,1.718,0,0,1,1.6-1.6h27c.3-.7,2.8-8.5,4.4-13.3a3.223,3.223,0,0,1,3.3-2.4,3.3,3.3,0,0,1,3,2.6c.3,1.3,4.6,20.6,6,26.7,1.4-3.3,4.5-10.5,4.8-11.1A3.578,3.578,0,0,1,63,48.5H89.2a1.811,1.811,0,0,1,.4,3.6H62.7v.2L57.2,64.9a3.1,3.1,0,0,1-2.9,1.9Z" fill="#1268b3"/>
    <path id="Path_2" data-name="Path 2" d="M50,91.6c-8.6,0-44-24.3-44-53.9a27.656,27.656,0,0,1,7.2-19.2,24.762,24.762,0,0,1,18.2-8,22.445,22.445,0,0,1,14.3,5,33.278,33.278,0,0,1,3.9,3.6.481.481,0,0,0,.6.2c.1,0,.1-.1.2-.2a42.723,42.723,0,0,1,3.8-3.6,23.242,23.242,0,0,1,14.3-5,24.666,24.666,0,0,1,18.2,7.9,28.3,28.3,0,0,1,7.2,19.2c.1,29.7-35.3,54-43.9,54ZM31.4,14a20.824,20.824,0,0,0-15.5,6.8A24.556,24.556,0,0,0,9.7,37.5C9.7,65.8,43.8,87.9,50,87.9S90.4,65.8,90.4,37.5a24.627,24.627,0,0,0-6.2-16.8,21.2,21.2,0,0,0-15.5-6.8,19.536,19.536,0,0,0-12.1,4.2,25.362,25.362,0,0,0-3.4,3.2,4.376,4.376,0,0,1-6.1.2l-.2-.2a20.75,20.75,0,0,0-3.4-3.2A20.068,20.068,0,0,0,31.4,14Z" fill="#1268b3"/>
  </g>
</svg>
