<svg xmlns="http://www.w3.org/2000/svg" width="30" height="30" viewBox="0 0 86.81 90.531">
  <g id="industry" transform="translate(-6.706 -4.669)">
    <path id="Path_1" data-name="Path 1" d="M87.3,95.2H12.9a4.842,4.842,0,0,1-4.8-4C5.6,78.3,6.6,60.8,10,55.2l.1-.2L23.5,33.5a4.58,4.58,0,0,1,4-2.3,4.834,4.834,0,0,1,4,2.3,5.134,5.134,0,0,1,.7,2.4l.4,12.3L42.7,33.4a4.494,4.494,0,0,1,4-2.2,4.834,4.834,0,0,1,4,2.3,5.134,5.134,0,0,1,.7,2.4V52.1c30.9-.2,37.8,1.3,39.4,4,3.1,5.3,3.7,26.3,1,35.7a4.9,4.9,0,0,1-4.5,3.4ZM27.5,34.5a1.709,1.709,0,0,0-1.3.7L12.8,56.7c-2.9,4.7-4.2,20.7-1.7,33.9A1.805,1.805,0,0,0,12.8,92H87.3a1.287,1.287,0,0,0,1.3-1.1c2.6-9.1,1.8-29-.7-33.2-1.1-1.2-8.6-2.6-38.2-2.4a1.58,1.58,0,0,1-1.6-1.6V36a1.538,1.538,0,0,0-1.5-1.5,1.709,1.709,0,0,0-1.3.7l-12.9,19a1.565,1.565,0,0,1-1.8.6,1.5,1.5,0,0,1-1.1-1.5L29,36a1.884,1.884,0,0,0-.2-.8A1.709,1.709,0,0,0,27.5,34.5Z" fill="#1268b3"/>
    <path id="Path_2" data-name="Path 2" d="M22.3,80H28a1.58,1.58,0,0,0,1.6-1.6V69A1.58,1.58,0,0,0,28,67.4H22.3A1.735,1.735,0,0,0,20.6,69v9.4A1.738,1.738,0,0,0,22.3,80Zm15.8,0h5.7a1.58,1.58,0,0,0,1.6-1.6V69a1.58,1.58,0,0,0-1.6-1.6H38.1A1.735,1.735,0,0,0,36.4,69v9.4A1.818,1.818,0,0,0,38.1,80ZM79.9,53.9,75.2,13a5.473,5.473,0,0,0-5.8-5.1A5.567,5.567,0,0,0,64.3,13L59.6,53.9l-3.2-.4,4.7-40.9a8.655,8.655,0,0,1,9.4-7.9,8.75,8.75,0,0,1,7.9,7.9l4.7,40.9Z" fill="#1268b3"/>
  </g>
</svg>
