<svg xmlns="http://www.w3.org/2000/svg" width="30" height="30" viewBox="0 0 84.05 85">
  <g id="parking-solution" transform="translate(-7.975 -7.5)">
    <path id="Path_1" data-name="Path 1" d="M87,12.3C82.5,7.8,57.8,7.5,50.1,7.5h-.2c-7.7,0-32.5.4-36.9,4.8C6.3,19,6.3,81.2,13,87.9c4.2,4.2,27.3,4.6,37.1,4.6S82.8,92,87,87.9c6.7-6.7,6.7-68.9,0-75.6Zm-2.6,73C82.7,87,70.1,88.8,50,88.8S17.3,87,15.6,85.3c-5.3-5.3-5.3-65.1,0-70.4,1.8-1.8,14.5-3.8,34.4-3.8S82.6,13,84.4,14.9C89.6,20.2,89.6,80.1,84.4,85.3Z" fill="#1268b3"/>
    <path id="Path_2" data-name="Path 2" d="M61.8,43.6A7.81,7.81,0,0,0,54,35.8H43.4A1.453,1.453,0,0,0,42,37.3V50a1.367,1.367,0,0,0,1.4,1.4H54a7.81,7.81,0,0,0,7.8-7.8Zm-17-4.9H54a5.015,5.015,0,0,1,5,5,4.951,4.951,0,0,1-5,5H44.8Z" fill="#1268b3"/>
    <path id="Path_3" data-name="Path 3" d="M70.3,43.6A16.3,16.3,0,0,0,54,27.3H34.9a1.367,1.367,0,0,0-1.4,1.4V71.2a1.367,1.367,0,0,0,1.4,1.4h8.5a1.367,1.367,0,0,0,1.4-1.4V59.9H54A16.3,16.3,0,0,0,70.3,43.6ZM43.4,57.1A1.367,1.367,0,0,0,42,58.5V69.8H36.3V30.2H54a13.458,13.458,0,1,1,.9,26.9Z" fill="#1268b3"/>
  </g>
</svg>
