<svg xmlns="http://www.w3.org/2000/svg" width="30" height="30" viewBox="0 0 89.3 89">
  <g id="projects" transform="translate(-5.4 -5.4)">
    <path id="Path_4" data-name="Path 4" d="M84.3,68.4a1.2,1.2,0,0,0-1.4.3L68.6,83a1.254,1.254,0,0,0,.9,2.2H83.8a1.324,1.324,0,0,0,1.3-1.3V69.6A1.206,1.206,0,0,0,84.3,68.4ZM72.7,82.6l9.8-9.8v9.8Z" fill="#1268b3"/>
    <path id="Path_5" data-name="Path 5" d="M93.8,47.4a1.2,1.2,0,0,0-1.4.3l-3.9,3.9V24.9a1.324,1.324,0,0,0-1.3-1.3H77.1l3.7-3.7,3.5-3.5a3.984,3.984,0,0,0,0-5.7L80.2,6.6a4.417,4.417,0,0,0-2.8-1.2,3.631,3.631,0,0,0-2.8,1.2L71,10.1l-4.3,4.3-9.1,9.2H17v-13a1.324,1.324,0,0,0-1.3-1.3A10.285,10.285,0,0,0,5.4,19.6V75.5a9.93,9.93,0,0,0,9.9,9.2H55.4l-7.5,7.5a1.254,1.254,0,0,0,.9,2.2H93.4a1.324,1.324,0,0,0,1.3-1.3V48.6a1.594,1.594,0,0,0-.9-1.2ZM76.4,8.5a1.391,1.391,0,0,1,1.9,0l4.1,4.1a1.391,1.391,0,0,1,0,1.9l-2.6,2.6-6-6ZM72,13l6,6-2.4,2.4-6-6ZM92,63.3H89.6a1.3,1.3,0,1,0,0,2.6H92v3.9H89.6a1.3,1.3,0,0,0,0,2.6H92v3.9H89.6a1.3,1.3,0,0,0,0,2.6H92v3.9H89.6a1.3,1.3,0,0,0,0,2.6H92v6.2H51.9L65.1,78.4a1.268,1.268,0,0,0,0-1.8l-.2-.2a1.259,1.259,0,0,0-1.7.2l-5.3,5.6H15.3A7.235,7.235,0,0,1,8,75.1V73.7a.367.367,0,0,1,.1-.3v-.1c0-.1,0-.1.1-.2,0-.1,0-.1.1-.2v-.1l.1-.2v-.1c0-.1.1-.2.1-.3A7.5,7.5,0,0,1,13.9,68h1.5a1.324,1.324,0,0,0,1.3-1.3V56.9a1.3,1.3,0,0,0-2.6,0V65a10.85,10.85,0,0,0-5.9,2.8l-.5.5V19.6A7.722,7.722,0,0,1,14.1,12V56.7a1.3,1.3,0,0,0,2.6,0V26.2H55L43.9,37.3a1.389,1.389,0,0,0,0,1.9,1.3,1.3,0,0,0,1.9,0L59.1,25.9l8.6-8.6,6,6L73,24,46.6,50.4l-6-6,5.1-5.1a1.273,1.273,0,1,0-1.8-1.8l-6.1,6.1-.1.1V44l-2.6,7-1.7,4.9v.2H28.8a1.3,1.3,0,1,0,0,2.6H65.1a1.3,1.3,0,1,0,0-2.6H39l8-2.8h.2l.1-.1.1-.1,27-27H85.8v28L63.4,76.6a1.268,1.268,0,0,0,0,1.8l.1.1a1.217,1.217,0,0,0,1.6,0l.1-.1L92,51.7V63.3ZM44.2,51.7,40.4,53l-2.5-2.6,1.3-3.8Z" fill="#1268b3"/>
  </g>
</svg>
