<svg xmlns="http://www.w3.org/2000/svg" width="30" height="30" viewBox="0 0 506.975 512">
  <g id="trabaja-en-libelium" transform="translate(-2.512)">
    <g id="Group_2" data-name="Group 2">
      <path id="Path_16" data-name="Path 16" d="M453.324,194.709H324a7.5,7.5,0,1,0,0,15H453.325a7.5,7.5,0,1,0,0-15Z" fill="#1268b3"/>
      <path id="Path_17" data-name="Path 17" d="M453.324,239.922H324a7.5,7.5,0,0,0,0,15H453.325a7.5,7.5,0,1,0,0-15Z" fill="#1268b3"/>
      <path id="Path_18" data-name="Path 18" d="M460.824,292.634a7.5,7.5,0,0,0-7.5-7.5H324a7.5,7.5,0,1,0,0,15H453.325A7.5,7.5,0,0,0,460.824,292.634Z" fill="#1268b3"/>
      <path id="Path_19" data-name="Path 19" d="M324,330.348a7.5,7.5,0,1,0,0,15h64.661a7.5,7.5,0,0,0,0-15Z" fill="#1268b3"/>
      <path id="Path_20" data-name="Path 20" d="M498.619,88.191,421.3,10.87A37.107,37.107,0,0,0,395.058,0H140.619a37.148,37.148,0,0,0-37.1,37.106v76.781a7.5,7.5,0,1,0,15,0V37.106A22.132,22.132,0,0,1,140.619,15H395.058a22.072,22.072,0,0,1,4.764.516v68.3a25.883,25.883,0,0,0,25.854,25.854h68.288a22.109,22.109,0,0,1,.523,4.764V474.895A22.132,22.132,0,0,1,472.38,497H371.632a33.808,33.808,0,0,0-4.2-42.623l-68.185-68.185a17.513,17.513,0,0,0-18.4-4.038l-14.68-14.68a145.418,145.418,0,0,0-15.341-187.737c-56.213-56.212-148.443-57.332-205.774,0-56.732,56.732-56.732,149.042,0,205.774a145.617,145.617,0,0,0,187.732,15.336l14.685,14.685a17.512,17.512,0,0,0,4.039,18.4L314.589,497H140.619a22.132,22.132,0,0,1-22.107-22.107V450.86a7.5,7.5,0,0,0-15,0v24.035A37.147,37.147,0,0,0,140.619,512H472.381a37.148,37.148,0,0,0,37.106-37.105V114.429a37.171,37.171,0,0,0-10.868-26.238ZM55.668,374.907c-50.884-50.884-50.884-133.678,0-184.563,51.532-51.532,134.24-50.322,184.563,0A130.405,130.405,0,0,1,250.383,363.51a132.427,132.427,0,0,1-21.549,21.549A130.563,130.563,0,0,1,55.668,374.907ZM244.6,391.391a147.581,147.581,0,0,0,12.137-12.139l12.35,12.35-12.167,12.167-12.349-12.35a.377.377,0,0,1,.029-.028Zm85.7,100.117-68.184-68.184a2.507,2.507,0,0,1,0-3.544l.1-.1s0,0,.005-.005L285.1,396.8a2.509,2.509,0,0,1,3.544,0l68.184,68.185a18.756,18.756,0,0,1-26.525,26.524Zm84.514-407.7V25.6l69.062,69.062H425.677A10.867,10.867,0,0,1,414.821,83.811Z" fill="#1268b3"/>
      <path id="Path_21" data-name="Path 21" d="M315.372,48.663H166.585a16.148,16.148,0,0,0-16.13,16.13V93.536a16.148,16.148,0,0,0,16.13,16.13H315.372a16.148,16.148,0,0,0,16.13-16.13V64.793a16.15,16.15,0,0,0-16.13-16.13Zm1.13,44.872a1.132,1.132,0,0,1-1.131,1.131H166.585a1.132,1.132,0,0,1-1.131-1.131V64.793a1.132,1.132,0,0,1,1.131-1.131H315.372a1.132,1.132,0,0,1,1.131,1.131V93.535Z" fill="#1268b3"/>
      <path id="Path_22" data-name="Path 22" d="M229.688,364.365a115.6,115.6,0,1,0-196-99.309,7.5,7.5,0,0,0,14.826,2.268A100.6,100.6,0,1,1,223.649,348.87a32.438,32.438,0,0,0-16.225-15.387c-8.884-3.911-24.2-6.4-33.621-7.639l-.04-9.47a44,44,0,0,0,17.423-28.523,13.315,13.315,0,0,0,8.185-12.357c-.067-9.939-.058-26.412-.058-36.008a18.414,18.414,0,0,0-15.271-18.119,18.412,18.412,0,0,0-18.036-14.822H129.8a33.885,33.885,0,0,0-33.847,33.846v35.243a13.25,13.25,0,0,0,8.086,12.188,44.112,44.112,0,0,0,16.627,27.912l.044,10.333c-9.41,1.321-24.7,3.936-33.557,7.922A31.63,31.63,0,0,0,71.925,348.5a99.8,99.8,0,0,1-23.077-48.535,7.5,7.5,0,1,0-14.777,2.571A114.882,114.882,0,0,0,66.21,364.363C111.479,409.635,184.816,409.239,229.688,364.365ZM129.8,221.545h36.2a3.388,3.388,0,0,1,3.384,3.384A11.188,11.188,0,0,0,180.565,236.1h.367a3.388,3.388,0,0,1,3.384,3.384v4.025l-9.065-.85a41.813,41.813,0,0,0-25.57,5.934,26.529,26.529,0,0,1-13.858,3.906H110.956V240.394A18.868,18.868,0,0,1,129.8,221.545Zm-18.848,52.488V267.5h24.867a41.518,41.518,0,0,0,21.692-6.115,26.7,26.7,0,0,1,16.335-3.791l10.47.982c.006,4.619.018,10.713.044,15.429a9.312,9.312,0,0,0-7.679,8.612,29.127,29.127,0,0,1-58.143.022,9.381,9.381,0,0,0-7.586-8.606Zm36.68,50.928a44.082,44.082,0,0,0,11.16-1.439l.018,4.182a12.847,12.847,0,0,0,1.241,5.455,22.908,22.908,0,0,1-12.777,3.918h-.069a22.908,22.908,0,0,1-12.688-3.814,12.846,12.846,0,0,0,1.2-5.463l-.019-4.484a43.961,43.961,0,0,0,11.934,1.645ZM83.668,360a16.986,16.986,0,0,1,9.646-12.338c5.1-2.3,14.929-4.6,27.305-6.432a37.809,37.809,0,0,0,26.586,10.841h.114a37.808,37.808,0,0,0,26.7-11.066c12.392,1.724,22.238,3.947,27.359,6.2a17.111,17.111,0,0,1,10.358,13.2A100.77,100.77,0,0,1,83.668,360Z" fill="#1268b3"/>
    </g>
  </g>
</svg>
