<svg xmlns="http://www.w3.org/2000/svg" width="30" height="30" viewBox="0 0 108.69 110">
  <g id="reports" transform="translate(-22.19 -19.68)">
    <g id="Group_1" data-name="Group 1">
      <path id="Path_6" data-name="Path 6" d="M22.19,129.68H130.88v-110H22.19ZM24.98,22.47H128.11V126.81H24.98Z" fill="#1268b3"/>
      <path id="Path_7" data-name="Path 7" d="M70.5,45.8H63.53V68.1H70.5ZM67.71,65.3H66.32V48.58h1.39Z" fill="#1268b3"/>
      <path id="Path_8" data-name="Path 8" d="M60.75,55.18H53.78V68.09h6.97ZM57.96,65.3H56.57V57.96h1.39Z" fill="#1268b3"/>
      <path id="Path_9" data-name="Path 9" d="M51.08,30.75H44.11V68.09h6.97ZM48.3,65.3H46.9V33.53h1.39V65.3Z" fill="#1268b3"/>
      <path id="Path_10" data-name="Path 10" d="M41.33,38.55H34.36V68.1h6.97ZM38.54,65.3H37.15V41.34h1.39Z" fill="#1268b3"/>
      <path id="Path_11" data-name="Path 11" d="M74.4,71.07H31.2V26.65a1.39,1.39,0,0,0-2.78,0v47.2H74.5a1.42,1.42,0,0,0,1.39-1.39A1.45,1.45,0,0,0,74.4,71.07Z" fill="#1268b3"/>
      <path id="Path_12" data-name="Path 12" d="M117.79,94.29a3.085,3.085,0,0,0,.37,1.39L112.03,102a3.5,3.5,0,0,0-1.67-.47,3.436,3.436,0,0,0-1.95.56l-5.58-5.02a4.426,4.426,0,0,1,.09-.47,3.434,3.434,0,0,0-6.86,0,.736.736,0,0,0,.09.47l-5.02,4.46c-.19,0-.47-.09-.75-.09a3.326,3.326,0,0,0-3.43,3.26,3.434,3.434,0,0,0,6.86,0,2.734,2.734,0,0,0-.47-1.48l4.37-3.9a3.53,3.53,0,0,0,3.52,0l5.77,5.11v.28a3.434,3.434,0,0,0,6.86,0,1.223,1.223,0,0,0-.09-.56l6.69-6.88a2.675,2.675,0,0,0,.84.09,3.326,3.326,0,0,0,3.43-3.26,3.4,3.4,0,0,0-3.43-3.26A3.665,3.665,0,0,0,117.79,94.29Z" fill="#1268b3"/>
      <path id="Path_13" data-name="Path 13" d="M123.46,121.14H84.81V81.47a1.39,1.39,0,0,0-2.78,0v42.46h41.44a1.42,1.42,0,0,0,1.39-1.39A1.445,1.445,0,0,0,123.46,121.14Z" fill="#1268b3"/>
      <path id="Path_14" data-name="Path 14" d="M83.51,51.27A18.68,18.68,0,1,0,102.19,32.6H100.8V49.88H83.51Zm19.97,1.4V35.49A15.87,15.87,0,1,1,86.3,52.67h17.18Z" fill="#1268b3"/>
      <path id="Path_15" data-name="Path 15" d="M98.56,27.68H97.17A18.682,18.682,0,0,0,78.49,46.36v1.39H98.56ZM95.78,44.96H81.37A15.853,15.853,0,0,1,95.76,30.57V44.96Z" fill="#1268b3"/>
      <rect id="Rectangle_1" data-name="Rectangle 1" width="38.28" height="2.79" transform="translate(31.67 90.39)" fill="#1268b3"/>
      <rect id="Rectangle_2" data-name="Rectangle 2" width="38.28" height="2.79" transform="translate(31.67 97.08)" fill="#1268b3"/>
      <rect id="Rectangle_3" data-name="Rectangle 3" width="38.28" height="2.79" transform="translate(31.67 103.77)" fill="#1268b3"/>
      <rect id="Rectangle_4" data-name="Rectangle 4" width="38.28" height="2.79" transform="translate(31.67 110.46)" fill="#1268b3"/>
    </g>
  </g>
</svg>
