<svg xmlns="http://www.w3.org/2000/svg" width="71.655" height="89" viewBox="0 0 71.655 89">
  <g id="retail" transform="translate(-14.162 -5.5)">
    <path id="Path_3" data-name="Path 3" d="M68.4,23.9H65A14.839,14.839,0,0,0,49.6,9.4,15,15,0,0,0,35,23.9H31.6a18.4,18.4,0,0,1,36.8,0Z" fill="#1268b3"/>
    <path id="Path_4" data-name="Path 4" d="M49.7,26.2c17.4,0,28.2,1.6,30.3,2.8,1,2,2.5,11.5,2.5,29.7C82.3,75.5,81,86,80,88.4,77.3,89.5,65.3,91,48.1,91s-25.8-1.5-27.5-2.6c-1.2-1.9-3-12.3-3-29.7s1.7-27.8,3-29.7c1.9-1.2,12-2.8,29.1-2.8m0-3.4c-14.6,0-29,1.2-31.6,3.8-5.2,5.2-5.3,59,0,64.3,2.5,2.5,15.9,3.6,30,3.6,15.7,0,32.1-1.4,34.3-3.6,4.2-4.2,4.9-59.4,0-64.3-2.4-2.5-17.7-3.8-32.7-3.8Z" fill="#1268b3"/>
  </g>
</svg>
