<svg xmlns="http://www.w3.org/2000/svg" width="30" height="30" viewBox="0 0 203.945 246.4">
  <path id="tourism" d="M226.9,75.9c-5.8-34.3-48-60.2-98.9-61.3V5.4a3.6,3.6,0,1,0-7.2,0v9.3C70.5,16.1,28.8,41.8,23.2,76a9.921,9.921,0,0,0,8.1,11.3l2,5A18.825,18.825,0,0,0,50.6,104H79.2A18.5,18.5,0,0,0,95,95.4a18.5,18.5,0,0,0,15.8,8.6h10.1V241h-76a3.6,3.6,0,0,0,0,7.2H204a3.6,3.6,0,1,0,0-7.2H128V104h11.5a18.964,18.964,0,0,0,15.8-8.6,18.5,18.5,0,0,0,15.8,8.6h28.6a18.641,18.641,0,0,0,17.4-11.9l1.8-4.9a10.487,10.487,0,0,0,5.8-3.4,9.777,9.777,0,0,0,2.2-7.9Zm-73.2,4.3H96c1.3-20.5,12.8-47.6,28.6-58.1l-.2-.4h1.1l-.2.4C141,32.6,152.5,59.7,153.7,80.2ZM30.2,77.1c4.9-28.9,39.6-51.2,82.9-54.8C98.9,36.5,89.7,61.1,88.7,80.2H32.9a3.15,3.15,0,0,1-2.3-1.1,3.322,3.322,0,0,1-.4-2ZM79.3,96.7H50.7a11.526,11.526,0,0,1-10.6-7.2l-.9-2.2H90.8l-.7,2a11.532,11.532,0,0,1-10.8,7.4Zm60.1,0H110.8a11.526,11.526,0,0,1-10.6-7.2l-.9-2.2H151l-.7,2a11.763,11.763,0,0,1-10.9,7.4Zm60.2,0H171a11.322,11.322,0,0,1-10.6-7.2l-.9-2.2h51.8l-.7,2a11.9,11.9,0,0,1-11,7.4Zm19.6-17.6a2.845,2.845,0,0,1-2.3,1.1H161c-1.1-19.2-10.2-43.9-24.5-57.9,43.5,3.4,78.4,25.9,83.2,54.8a2.308,2.308,0,0,1-.5,2Z" transform="translate(-23.063 -1.8)" fill="#1268b3"/>
</svg>
