<svg xmlns="http://www.w3.org/2000/svg" width="90.324" height="84.524" viewBox="0 0 90.324 84.524">
  <g id="waste-menu" transform="translate(-5.338 -10.238)">
    <path id="Path_6" data-name="Path 6" d="M12.3,26.3H88.7a5.164,5.164,0,0,1,5.2,5.2h0a5.164,5.164,0,0,1-5.2,5.2H12.3a5.164,5.164,0,0,1-5.2-5.2h0A5.228,5.228,0,0,1,12.3,26.3Z" fill="none" stroke="#1268b3" stroke-linecap="round" stroke-linejoin="round" stroke-width="3.524"/>
    <path id="Path_7" data-name="Path 7" d="M91.1,36.8v41a4.481,4.481,0,0,1-4.5,4.5H14.4a4.481,4.481,0,0,1-4.5-4.5v-41" fill="none" stroke="#1268b3" stroke-linecap="round" stroke-linejoin="round" stroke-width="3.524"/>
    <path id="Path_8" data-name="Path 8" d="M10.8,26.4,16.6,14a3.563,3.563,0,0,1,3.2-2H81.4a3.563,3.563,0,0,1,3.2,2l5.8,12.4" fill="none" stroke="#1268b3" stroke-linecap="round" stroke-linejoin="round" stroke-width="3.524"/>
    <line id="Line_1" data-name="Line 1" y1="6.3" transform="translate(50.5 20)" fill="none" stroke="#1268b3" stroke-linecap="round" stroke-linejoin="round" stroke-width="3.524"/>
    <line id="Line_2" data-name="Line 2" x1="3.2" y1="8.9" transform="translate(68 17.4)" fill="none" stroke="#1268b3" stroke-linecap="round" stroke-linejoin="round" stroke-width="3.524"/>
    <line id="Line_3" data-name="Line 3" y1="8.9" x2="3.2" transform="translate(29.8 17.4)" fill="none" stroke="#1268b3" stroke-linecap="round" stroke-linejoin="round" stroke-width="3.524"/>
    <path id="Path_9" data-name="Path 9" d="M46,68.6H43.5a3.691,3.691,0,0,1-3.7-3.7,4.136,4.136,0,0,1,.5-1.9l1.2-2.2" fill="none" stroke="#1268b3" stroke-linecap="round" stroke-linejoin="round" stroke-width="3.524"/>
    <path id="Path_10" data-name="Path 10" d="M59.3,60.9l1.3,2.2a3.748,3.748,0,0,1-1.4,5.1,4.075,4.075,0,0,1-1.8.5H54.9" fill="none" stroke="#1268b3" stroke-linecap="round" stroke-linejoin="round" stroke-width="3.524"/>
    <path id="Path_11" data-name="Path 11" d="M54.9,53.3l-1.3-2.2a3.74,3.74,0,0,0-6.5,0l-1.3,2.2" fill="none" stroke="#1268b3" stroke-linecap="round" stroke-linejoin="round" stroke-width="3.524"/>
    <circle id="Ellipse_2" data-name="Ellipse 2" cx="5.3" cy="5.3" r="5.3" transform="translate(18.5 82.4)" fill="none" stroke="#1268b3" stroke-linecap="round" stroke-linejoin="round" stroke-width="3.524"/>
    <circle id="Ellipse_3" data-name="Ellipse 3" cx="5.3" cy="5.3" r="5.3" transform="translate(72 82.4)" fill="none" stroke="#1268b3" stroke-linecap="round" stroke-linejoin="round" stroke-width="3.524"/>
    <path id="Path_12" data-name="Path 12" d="M43.8,62.2V58a.56.56,0,0,0-.6-.5c-.1,0-.2,0-.2.1l-3.6,2.1c-.3.1-.3.5-.2.7a.215.215,0,0,0,.2.2L43,62.7a.574.574,0,0,0,.7-.2A.367.367,0,0,0,43.8,62.2Z" fill="#1268b3"/>
    <path id="Path_13" data-name="Path 13" d="M54.9,66l-3.6,2.1c-.3.1-.3.5-.2.7a.215.215,0,0,0,.2.2l3.6,3.4a.574.574,0,0,0,.7-.2.349.349,0,0,1,.1-.2V66.5a.472.472,0,0,0-.5-.5Z" fill="#1268b3"/>
    <path id="Path_14" data-name="Path 14" d="M57.1,51.9v4.2a.472.472,0,0,1-.5.5.367.367,0,0,1-.3-.1l-3.7-2.1a.627.627,0,0,1-.2-.8c0-.1.1-.1.2-.2l3.7-2.1a.43.43,0,0,1,.7.2A.756.756,0,0,1,57.1,51.9Z" fill="#1268b3"/>
  </g>
</svg>
