<svg xmlns="http://www.w3.org/2000/svg" width="30" height="30" viewBox="0 0 59.4 89.909">
  <g id="water" transform="translate(-20.3 -5.091)">
    <path id="Path_1" data-name="Path 1" d="M54.6,88a1.451,1.451,0,1,1-.1-2.9c9.1-.6,15.9-10.2,15.9-18.3a1.4,1.4,0,0,1,2.8,0c.1,9.4-7.9,20.5-18.6,21.2Z" fill="#1268b3"/>
    <path id="Path_2" data-name="Path 2" d="M50,7.9a1.457,1.457,0,0,1,1.3.7c17,25.6,25.6,44.6,25.6,56.6a26.8,26.8,0,1,1-53.6,0c0-16.8,19.6-47.6,25.6-56.6A1.126,1.126,0,0,1,50,7.9m0-2.8A4.416,4.416,0,0,0,46.3,7c-8,12-26,41.3-26,58.3a29.7,29.7,0,1,0,59.4,0C79.7,47,61.7,19,53.7,7A3.978,3.978,0,0,0,50,5.1Z"/>
    <path id="Path_3" data-name="Path 3" d="M50,7.9a1.457,1.457,0,0,1,1.3.7c17,25.6,25.6,44.6,25.6,56.6a26.8,26.8,0,1,1-53.6,0c0-16.8,19.6-47.6,25.6-56.6A1.126,1.126,0,0,1,50,7.9m0-2.8A4.416,4.416,0,0,0,46.3,7c-8,12-26,41.3-26,58.3a29.7,29.7,0,1,0,59.4,0C79.7,47,61.7,19,53.7,7A3.978,3.978,0,0,0,50,5.1Z" fill="#1268b3"/>
  </g>
</svg>
