<svg xmlns="http://www.w3.org/2000/svg" width="29.722" height="29.722" viewBox="0 0 29.722 29.722">
  <g id="Capa_2" data-name="Capa 2" transform="translate(-0.003 0)">
    <path id="Capa_5" data-name="Capa 5" d="M25.37,4.35a14.86,14.86,0,1,0,1.847,18.771A14.85,14.85,0,0,0,25.37,4.35ZM11.44,5.55l1,1.4a.92.92,0,0,1,0,1.09L12,8.62a.43.43,0,0,1-.4.16L11,8.72A2.43,2.43,0,0,0,8.61,9.91a.45.45,0,0,1-.45.21L7,10a2.51,2.51,0,0,0-2.4,1.08,2.29,2.29,0,0,0,0,2.51l.77,1.23a2.2,2.2,0,0,0,2.86.75l.8-.43a.88.88,0,0,1,.86,0l1.52.91a1,1,0,0,0,.5.14h.06a1.55,1.55,0,0,1,1.23.68l.74,1,.2.25.9,1.06-1.39,1.06a3,3,0,0,0-1,1.49l-.49,1.59a.33.33,0,0,1-.07.13l-.48.58a3.31,3.31,0,0,0-.69,1.36l-.32-1.94a2.75,2.75,0,0,0-.6-1.16L8.38,20.13a1.22,1.22,0,0,1-.22-.44l-.55-2a2.69,2.69,0,0,0-1.86-1.85H5.64a.84.84,0,0,1-.39-.22l-1-.95a1.57,1.57,0,0,1-.3-.38,2.82,2.82,0,0,0-2.46-1.42H1.34A13.59,13.59,0,0,1,5.2,5.2a13.8,13.8,0,0,1,3-2.27L9.73,4.09a5.25,5.25,0,0,0,.49.33,3.87,3.87,0,0,1,1.22,1.13ZM1.22,14.08a1.69,1.69,0,0,1,1.68.81,2.93,2.93,0,0,0,.51.65l1,1a2.18,2.18,0,0,0,.89.5h.12a1.48,1.48,0,0,1,1,1L7,20a2.7,2.7,0,0,0,.42.85L9.07,23a1.47,1.47,0,0,1,.29.65l.44,2.69a1,1,0,0,0,1.38.75A1.34,1.34,0,0,0,12,26a2.08,2.08,0,0,1,.49-1.16l.48-.58a1.48,1.48,0,0,0,.3-.55l.49-1.59a1.76,1.76,0,0,1,.61-.88l1.46-1.12a1.13,1.13,0,0,0,.43-.71,1.11,1.11,0,0,0-.25-.89l-1-1.14-.13-.17-.75-1A2.75,2.75,0,0,0,11.94,15l-1.47-.88a2.09,2.09,0,0,0-2,0l-.8.43a1,1,0,0,1-1.28-.34l-.77-1.22a1.09,1.09,0,0,1,0-1.2,1.28,1.28,0,0,1,1.25-.56L8,11.31a1.63,1.63,0,0,0,1.64-.8,1.24,1.24,0,0,1,1.23-.6l.51.06a1.62,1.62,0,0,0,1.49-.62l.45-.58a2.12,2.12,0,0,0,.07-2.51l-1-1.39a5.21,5.21,0,0,0-1.61-1.49c-.13-.07-.25-.16-.37-.24l-1.06-.8A13.59,13.59,0,0,1,23.1,4l-.2.29a17.78,17.78,0,0,0-2.35,3.18L20,8.34a1.3,1.3,0,0,0,.15,1.49,1.87,1.87,0,0,0,1.16.62h.25a1.91,1.91,0,0,1,1.61,1.35,1.88,1.88,0,0,1-.55,1.94L20.14,16a1.72,1.72,0,0,0-.58,1.32v.58a1.41,1.41,0,0,0,.65,1.22,1.75,1.75,0,0,1,.8,1.33l.06.57a1.26,1.26,0,0,0,1.26,1.14h1.5a2.45,2.45,0,0,0,2.26-1.47l.09-.2a1.82,1.82,0,0,1,1.57-1.07A13.665,13.665,0,0,1,1.2,14.86C1.2,14.6,1.21,14.34,1.22,14.08Zm26.49,4.13A3,3,0,0,0,25.09,20l-.09.2a1.3,1.3,0,0,1-1.17.76h-1.5a.069.069,0,0,1-.07-.07l-.06-.58a2.91,2.91,0,0,0-1.34-2.21.21.21,0,0,1-.1-.2v-.6a.52.52,0,0,1,.17-.41l2.51-2.22a3.08,3.08,0,0,0,.9-3.19,3.12,3.12,0,0,0-2.61-2.19h-.25A.67.67,0,0,1,21.07,9a.09.09,0,0,1,0-.1l.52-.9A17.12,17.12,0,0,1,23.8,5l.2-.27.5.47a13.67,13.67,0,0,1,4,9.66,13.85,13.85,0,0,1-.4,3.33Z" fill="#1268b3"/>
  </g>
</svg>
