<svg xmlns="http://www.w3.org/2000/svg" width="30" height="30" viewBox="0 0 92 90.6">
  <g id="meshlium" transform="translate(-4 -4.7)">
    <path id="Path_38" data-name="Path 38" d="M14.4,75.4,9.6,74.2l-1.4-9-1.7-.9.1-3.2,1-1.3L4,8.4l.3-.2c.1-.1,2.5-2,4.7-1.6a3.1,3.1,0,0,1,2.2,1.8l.1.1v.1l4.1,50.7,1.1,1.1v3.7l-1,.8.1,3.5H14.2L14,64.2l1-.8V61l-1-1L9.9,9A1.517,1.517,0,0,0,8.7,8,4.705,4.705,0,0,0,5.5,9L9.2,60.3l-1,1.4-.1,1.8,1.5.8L11,73.1l3.9,1-.5,1.3ZM40.2,56.6l-3.7-1.2-.3-2.1-.9-1.1V50.5l.7-1.4L34.6,6.3l.2-.2a4.1,4.1,0,0,1,3.1-1.4,3.552,3.552,0,0,1,2.7,1.5l.2.2v.2l1.6,42.2,1,.7v2.8L45,53.6l-.9,1.1L42,53V50.3l-1-.7v-.4L39.4,6.9a1.9,1.9,0,0,0-1.5-.8,2.732,2.732,0,0,0-1.9.8l1.4,42.7L36.7,51v.8l.9,1,.2,1.6,2.9.9-.5,1.3Z" fill="#1268b3"/>
    <path id="Path_39" data-name="Path 39" d="M64.4,95.3a2.2,2.2,0,0,1-.8-.1l-4.2-1.5-1.5.3L53,92.6l-4.8,2.6-.3-.1L15.8,81.5,15,74.8l1.4-.2.6,5.8L48.1,93.6,52.8,91l5,1.5,1.6-.3L64,93.8a.616.616,0,0,0,.7-.1.822.822,0,0,0,.4-.6l1.9-11h.6a.764.764,0,0,0,.5-.2c.1-.2.2-.4.1-.5l-.2-.6v-.1l5.1-69c-2.8-2.7-6.5-1.1-7.6-.5L61.4,77.3l-1.1,1.9.3,2.7,1.2,1.7-.7,4.9-7.9-3.2.6-1.3L60,86.5l.4-2.6-1.1-1.5-.4-3.5,1.2-2,4.1-66.6.3-.2c2-1.3,6.7-2.7,9.9.8l.2.2v.3L69.5,80.6l.1.4a1.939,1.939,0,0,1-.3,1.8,2.286,2.286,0,0,1-1,.7l-1.7,9.9A2.268,2.268,0,0,1,65.5,95a2.016,2.016,0,0,1-1.1.3Z" fill="#1268b3"/>
    <path id="Path_40" data-name="Path 40" d="M69.3,78.8l-.9-1.1,8.4-6.8,3.5,1.3a1.091,1.091,0,0,0,1.3-.3l.8-.8,3.4.9a1.232,1.232,0,0,0,1-.2,1.05,1.05,0,0,0,.5-.9l.8-7.6,1.7-.7.2-1.5L89.3,60,89,58.1,94.4,7.5c-2.2-1.9-5-.9-6-.4L85,50.9l-.1,8.5-2.2,1.3,1.9,2.7-.1,2.8a1.9,1.9,0,0,1-.8,1.5,1.605,1.605,0,0,1-1.6.3l-1-.3.3-1.4,1,.3a.6.6,0,0,0,.4-.1.52.52,0,0,0,.2-.4l.1-2.2-2.5-3.5,2.8-1.7.1-7.7L87,6.3l.3-.2c1.7-1,5.5-2,8.3.7L96,7v.3L90.5,58l.2,1.6.9,1.2-.4,2.8-1.6.7-.7,6.8A2.738,2.738,0,0,1,86,73.4a.367.367,0,0,1-.3-.1l-2.6-.7-.2.2a2.614,2.614,0,0,1-2.8.6l-2.8-1-8,6.4Z" fill="#1268b3"/>
    <path id="Path_41" data-name="Path 41" d="M70.1,71.5l-.8-1.2,6-4h5.2l.4-5.6-1-1.5-8.6-1.6.3-1.4,9.1,1.7,1.7,2.4-.5,7.4H75.7ZM51.5,87.1h-3l-.1-.1L12.3,73.5V68.9l.4-.2L48.8,51l12.7,2.9-.3,1.4L49,52.5,13.7,69.8v2.7L48.8,85.6H51l5.4-4.4,3.8.2-.1,1.4-3.2-.2Z" fill="#1268b3"/>
    <path id="Path_42" data-name="Path 42" d="M51.5,83.9H47.9l-.1-.1L12.7,70l.6-1.3L48.2,82.4H51l5.3-4.1h3.5v1.4h-3Zm-3-15.8L38.3,63.8l12-6.4L60.8,60Zm-6.9-4.5,6.7,2.9,8.9-5.9-6.8-1.7Zm6.3,22.7h1.4v8.1H47.9Zm2.7,0H52v6.4H50.6Z" fill="#1268b3"/>
  </g>
</svg>
