<svg xmlns="http://www.w3.org/2000/svg" width="30" height="30" viewBox="0 0 64.8 94.5">
  <g id="mysignals" transform="translate(-17.6 -2.7)">
    <path id="Path_1" data-name="Path 1" d="M68.4,97.2H31.6a14.106,14.106,0,0,1-14-14V16.7a14.106,14.106,0,0,1,14-14H68.4a14.106,14.106,0,0,1,14,14V83.2A14.041,14.041,0,0,1,68.4,97.2ZM31.6,4.6A12.078,12.078,0,0,0,19.5,16.7V83.2A12.078,12.078,0,0,0,31.6,95.3H68.4A12.078,12.078,0,0,0,80.5,83.2V16.7A12.078,12.078,0,0,0,68.4,4.6H31.6Z" fill="#1268b3"/>
    <path id="Path_2" data-name="Path 2" d="M59,82.6H41.1a13.956,13.956,0,0,1-13.9-14V30A14.02,14.02,0,0,1,41.1,16H59A14.106,14.106,0,0,1,73,30V68.6A14.106,14.106,0,0,1,59,82.6ZM41.1,17.9A12.078,12.078,0,0,0,29,30V68.6A12.078,12.078,0,0,0,41.1,80.7H59A12.078,12.078,0,0,0,71.1,68.6V30A12.078,12.078,0,0,0,59,17.9Z" fill="#1268b3"/>
    <path id="Path_3" data-name="Path 3" d="M42.8,67.6,37.5,41.1l-3,14.4-2.1-4.6H29.5V49h4l.3.6,3.7-17.8L42,54.1l1-11,1.8.1a10.474,10.474,0,0,0,.5,3,3.712,3.712,0,0,0,3.3,2.9,15.928,15.928,0,0,1,7.3,2.5l3-20.6,4.6,24.1,1.9-14.8,3.3,8.8H72V51H67.5l-1.1-3L63.9,66.9,59.2,42.2,57.3,55l-1.2-1.1A13.942,13.942,0,0,0,48.6,51a5.216,5.216,0,0,1-4.1-2.4Z" fill="#1268b3"/>
  </g>
</svg>
