<svg xmlns="http://www.w3.org/2000/svg" width="30" height="30" viewBox="0 0 49.2 93">
  <g id="plug-and-sense" transform="translate(-25.4 -3.5)">
    <path id="Path_43" data-name="Path 43" d="M39.4,60.1a3.5,3.5,0,0,1-2.2-.8,3.541,3.541,0,0,1-1-2.6v-11H27.4a1.163,1.163,0,0,1-1-.2c-.7-.5-1-1.5-1-3.2V5.1l.1-.2a2.74,2.74,0,0,1,2.1-1.4,2.216,2.216,0,0,1,1.7,1.4V5l.5,5V40.5H36V29.9a2.877,2.877,0,0,1,.5-2,2.723,2.723,0,0,1,2.4-.9h29a2.353,2.353,0,0,1,1.6.5,4.35,4.35,0,0,1,1.2,3.4V56.7a2.931,2.931,0,0,1-.4,2.2A3.25,3.25,0,0,1,67.5,60H39.4ZM27.2,44.4H37.6V56.6a3.022,3.022,0,0,0,.5,1.6,1.845,1.845,0,0,0,1.2.5H67.4a2.155,2.155,0,0,0,1.7-.5,1.389,1.389,0,0,0,.2-1.1V31a3.477,3.477,0,0,0-.6-2.4.764.764,0,0,0-.5-.2H39a1.746,1.746,0,0,0-1.2.4,1.02,1.02,0,0,0-.2.9V42h-9V10.2l-.5-4.7a1.649,1.649,0,0,0-.5-.6c-.1-.1-.5.3-.8.6V42.3c0,1.6.3,2,.4,2.1Z" fill="#1268b3"/>
    <path id="Path_44" data-name="Path 44" d="M65,54.8H42.2V32.9H65V54.8ZM43.6,53.5h20V34.3h-20Zm31-11.8H70.1V40.3h3.1V36.2H70.1V34.8h4.5ZM72.1,52.3H70V50.9h2.1V47.4a.908.908,0,0,0-.3-.7H70.1V45.3h2.1a2.188,2.188,0,0,1,1.3,2v3.9a1.244,1.244,0,0,1-1.4,1.1ZM47.9,96.5H41.4V88.7l1.2-1.6V70.3l-.9-.6-.3-9.8,1.4-.1.2,9.1,1,.6V87.6l-1.2,1.5v6h3.7v-6l-1.3-1.3V69.6l.7-.7V59.6h1.4v9.9l-.7.7v17l1.3,1.3Zm8.9,0H50.4V88.7l1.2-1.6V70.3l-1-.6-.2-9.8,1.4-.1.2,9.1.9.6V87.6l-1.1,1.5v6h3.7v-6l-1.3-1.3V69.6l.7-.7V59.6h1.3v9.9l-.6.7v17l1.2,1.3Zm9.1,0H59.4V88.7l1.2-1.6V70.3l-.9-.6-.3-9.8,1.4-.1.3,9.1.9.6V87.6l-1.2,1.5v6h3.7v-6l-1.3-1.3V69.6l.7-.7V59.6h1.4v9.9l-.7.7v17l1.3,1.3Z" fill="#1268b3"/>
  </g>
</svg>
